<svg xmlns="http://www.w3.org/2000/svg"  viewBox="0 0 40 40" width="40px" height="40px"><path fill="#839cb2" d="M6,37.5c-1.93,0-3.5-1.57-3.5-3.5V7c0-1.93,1.57-3.5,3.5-3.5h27c1.93,0,3.5,1.57,3.5,3.5v27 c0,1.93-1.57,3.5-3.5,3.5H6z"/><path fill="#66798f" d="M33,4c1.654,0,3,1.346,3,3v27c0,1.654-1.346,3-3,3H6c-1.654,0-3-1.346-3-3V7c0-1.654,1.346-3,3-3H33 M33,3H6C3.791,3,2,4.791,2,7v27c0,2.209,1.791,4,4,4h27c2.209,0,4-1.791,4-4V7C37,4.791,35.209,3,33,3L33,3z"/><path fill="#455260" d="M37,7c0-1.834-1.241-3.363-2.924-3.835l-8.607,9.389l-4.261-4.261l-0.655-0.655l-0.703,0.603l-3.5,3 l-0.845,0.724l0.811,0.763l8.5,8l0.706,0.665l0.686-0.686L37,9.914V7z"/><path fill="#fff" d="M12.636 31.19c0-.479-.174-.854-.522-1.122-.348-.269-.96-.546-1.835-.833-.875-.288-1.591-.564-2.147-.833-1.807-.867-2.711-2.059-2.711-3.575 0-.755.225-1.42.676-1.998s1.087-1.027 1.911-1.347C8.832 21.161 9.758 21 10.787 21c1.002 0 1.902.175 2.697.524.796.349 1.413.847 1.854 1.492C15.779 23.662 16 24.171 16 25h-3.354c0-.555-.174-.756-.522-1.062s-.819-.458-1.413-.458c-.6 0-1.074.129-1.423.388-.348.26-.522.588-.522.987 0 .35.192.667.575.949.383.284 1.057.578 2.022.881.964.302 1.757.629 2.376.978C15.247 28.512 16 29.682 16 31.173c0 1.19-.46 2.127-1.379 2.807C13.699 34.66 12.438 35 10.835 35c-1.13 0-2.154-.199-3.071-.594-.916-.396-1.606-.939-2.069-1.629S5 30.898 5 30h3.372c0 .73.194 1.665.579 2.01.386.347 1.015.52 1.883.52.555 0 .995-.116 1.318-.351C12.475 31.945 12.636 31.614 12.636 31.19zM21.399 35c-1.311 0-2.373-.397-3.183-1.192C17.406 33.015 17 31.982 17 30.71v-.225c0-.888.161-1.67.485-2.35.324-.68.796-1.205 1.418-1.577C19.523 26.186 20.26 26 21.114 26c1.201 0 2.148.379 2.844 1.135C24.652 27.892 25 28.946 25 30.299V31h-5.5c.095.486.367 1.202.688 1.479C20.507 32.758 20.99 33 21.5 33c.841 0 1.58-.385 2.055-.985l1.217 1.461c-.332.466-.802.836-1.41 1.111C22.754 34.862 22.1 35 21.399 35zM21 28c-.779 0-1.5.521-1.5 1.5h3l0 0c.011-.433-.203-.82-.429-1.057C21.845 28.205 21.422 28 21 28z"/><g><path fill="#99c99e" d="M17 12L20.5 9 25.5 14 36.5 2 39 6.5 25.5 20z"/></g></svg>